<?xml version="1.0" encoding="utf-8"?>
<!-- Generator: Adobe Illustrator 14.0.0, SVG Export Plug-In . SVG Version: 6.00 Build 43363)  -->
<!DOCTYPE svg PUBLIC "-//W3C//DTD SVG 1.1//EN" "http://www.w3.org/Graphics/SVG/1.1/DTD/svg11.dtd">
<svg version="1.1" id="Layer_1" xmlns="http://www.w3.org/2000/svg" xmlns:xlink="http://www.w3.org/1999/xlink" x="0px" y="0px"
	 width="300px" height="130px" viewBox="0 0 300 130" enable-background="new 0 0 300 130" xml:space="preserve">
<g>
	<path fill="#FFFFFF" d="M290.797,0.001H9.202C4.119,0.001,0,4.015,0,8.966v112.069C0,125.986,4.119,130,9.202,130h281.595
		c5.083,0,9.203-4.014,9.203-8.965V8.966C300,4.015,295.88,0.001,290.797,0.001z M75.451,102.059l-11.73-26.221h-1.265v26.221
		H42.328V28.223h34.158c11.271,0,16.906,4.755,16.906,14.261v19.092c0,7.284-3.297,11.77-9.89,13.458l13.57,27.025H75.451z
		 M126.17,102.059h-20.127V28.223h20.127V102.059z M177.691,102.059h-23.347l-18.171-73.836h20.932l8.855,49.34l8.97-49.34h20.933
		L177.691,102.059z M257.969,102.059h-17.252l-16.445-38.758v38.758h-18.402V28.223h17.251l16.447,39.447V28.223h18.401V102.059z"/>
	<path fill="#FFFFFF" d="M70.391,42.599h-7.936V62.15h7.936c1.916,0,2.875-0.843,2.875-2.53V45.129
		C73.266,43.443,72.307,42.599,70.391,42.599z"/>
</g>
</svg>
